<svg id="Layer_1" data-name="Layer 1" xmlns="http://www.w3.org/2000/svg" viewBox="0 0 568.14 65.49"><defs><style>.cls-1{fill:#f2f2f2;}</style></defs><path class="cls-1" d="M244.57,488.17l-13.49,5.21,13.49,5.29V512l-28.91-13.34V488.09l28.91-13.26Z" transform="translate(-215.66 -466.78)"/><path class="cls-1" d="M249.13,466.78h12.75v41.35H281v11.92H249.13Z" transform="translate(-215.66 -466.78)"/><path class="cls-1" d="M275.59,499.27c0-12.22,8.19-21.91,19.67-21.91,6.41,0,11.47,3.13,13.78,7.53h.37v-6.41h12.45V520H309.41v-6H309c-3.8,5.51-8.12,7.08-13.78,7.08C283.78,521.1,275.59,511.41,275.59,499.27Zm32,0c0-5.89-3.43-10-9.31-10s-9,4.1-9,10,3.21,9.91,9,9.91S307.55,505.08,307.55,499.27Z" transform="translate(-215.66 -466.78)"/><path class="cls-1" d="M321.49,498.89a22.09,22.09,0,0,1,38.15-15.05l-8.27,8.35a9.76,9.76,0,0,0-7.83-3.28c-5.14,0-9.24,4.17-9.24,10S338.4,509,343.54,509a9.76,9.76,0,0,0,7.3-2.75l8.27,8.34A21.78,21.78,0,0,1,343.54,521,22.06,22.06,0,0,1,321.49,498.89Z" transform="translate(-215.66 -466.78)"/><path class="cls-1" d="M395.62,478.48V520H383V490.4h-13V520H357.25v-53.2h12.67v11.7Z" transform="translate(-215.66 -466.78)"/><path class="cls-1" d="M398.53,466.78H411.2V520H398.53Z" transform="translate(-215.66 -466.78)"/><path class="cls-1" d="M410.83,499.27c0-12.22,8.19-21.91,19.67-21.91,6.41,0,11.47,3.13,13.78,7.53h.37v-6.41H457.1V520H444.65v-6h-.37c-3.8,5.51-8.12,7.08-13.78,7.08C419,521.1,410.83,511.41,410.83,499.27Zm32,0c0-5.89-3.43-10-9.31-10s-9,4.1-9,10,3.21,9.91,9,9.91S442.79,505.08,442.79,499.27Z" transform="translate(-215.66 -466.78)"/><path class="cls-1" d="M460,478.48h38.37V520H485.71V490.4h-13V520H460Z" transform="translate(-215.66 -466.78)"/><path class="cls-1" d="M500.83,494.13h27.34V505.3H500.83Z" transform="translate(-215.66 -466.78)"/><path class="cls-1" d="M530.66,466.78h12.82V488h3.35L560,466.78H574.1l-16.32,26.53L573.36,520H559.05l-12.22-20h-3.35v20H530.66Z" transform="translate(-215.66 -466.78)"/><path class="cls-1" d="M566.13,499c0-12.14,9.91-21.68,22.8-21.68a22.5,22.5,0,0,1,22.8,22.73c0,.89-.07,2.46-.15,3.28h-32c.67,4.24,4.62,5.81,9.54,5.81,3.5,0,6.41-.82,7.75-3.58h14.08c-2.68,9.24-11.17,15.5-22,15.5C576,521.1,566.13,511.26,566.13,499Zm31.52-4.24c-.52-2.31-3.8-5.52-8.94-5.52S580.36,492,580,494.8Z" transform="translate(-215.66 -466.78)"/><path class="cls-1" d="M675.44,520H662.77V490.4H649.66V520H637V490.4H624V520H611.29v-41.5h64.15Z" transform="translate(-215.66 -466.78)"/><path class="cls-1" d="M678.27,478.48h12.45v6.41h.37c2.31-4.4,8.12-7.53,14.45-7.53,10.81,0,18.93,9.69,18.93,21.91s-8.12,21.83-18.93,21.83c-5.58,0-10.28-1.57-14.08-7.08h-.37v17.81H678.27Zm33,20.79c0-6.63-4.32-10-9.46-10s-9.24,3.36-9.24,10,4.17,9.91,9.24,9.91S711.28,505.82,711.28,499.27Z" transform="translate(-215.66 -466.78)"/><path class="cls-1" d="M742.88,466.78h13.41l-23.55,65.49H719.4Z" transform="translate(-215.66 -466.78)"/><path class="cls-1" d="M783.8,494.09v10.58L754.89,518V504.67l13.49-5.29-13.49-5.21V480.83Z" transform="translate(-215.66 -466.78)"/></svg>