<svg id="bg2" class="bgitem" data-name="Layer 1" xmlns="http://www.w3.org/2000/svg" xmlns:xlink="http://www.w3.org/1999/xlink" viewBox="0 0 532.92 580.81"><defs><style>.cls-1{fill:url(#linear-gradient);}.cls-2{fill:url(#linear-gradient-2);}.cls-3{fill:url(#linear-gradient-3);}</style><linearGradient id="linear-gradient" x1="1452.31" y1="512.92" x2="2004.89" y2="770.59" gradientUnits="userSpaceOnUse"><stop offset="0" stop-color="#7900bf"/><stop offset="1" stop-color="#8000d4"/></linearGradient><linearGradient id="linear-gradient-2" x1="1599.29" y1="572.79" x2="1983.28" y2="751.85" gradientUnits="userSpaceOnUse"><stop offset="0" stop-color="#bf00aa"/><stop offset="0.05" stop-color="#c305ac"/><stop offset="0.69" stop-color="#ee3fc2"/><stop offset="1" stop-color="#ff55cb"/></linearGradient><linearGradient id="linear-gradient-3" x1="1714.67" y1="644.9" x2="1951.06" y2="755.13" gradientUnits="userSpaceOnUse"><stop offset="0" stop-color="#0c00aa"/><stop offset="1" stop-color="#2a61ff"/></linearGradient></defs><path class="cls-1" d="M1920,403.6v549c-317.17-46.12-486.69-69.93-525.58-205.08-16.45-57.17-4.78-118.77,30.38-166.75,52.8-72.06,158.08-190.92,287.2-206.8C1773.33,366.46,1846.81,379,1920,403.6Z" transform="translate(-1387.08 -371.82)"/><path class="cls-2" d="M1920,506.12V887.56c-80.31-12.28-163.3-35.67-226.22-56-96.37-31.11-146.49-138-107.19-231.29.46-1.09.93-2.19,1.41-3.28,0,0,63-142,223-121C1847,480.73,1884.14,491.8,1920,506.12Z" transform="translate(-1387.08 -371.82)"/><path class="cls-3" d="M1920,621.14v200.6c-89.35-10.38-225-27.56-219-122.74,3-47.6,23.29-75.33,45.67-91.48,26.07-18.82,59.36-24.64,90.5-16.62C1870.75,599.55,1897.71,609.86,1920,621.14Z" transform="translate(-1387.08 -371.82)"/></svg>