<svg id="Layer_1" data-name="Layer 1" xmlns="http://www.w3.org/2000/svg" xmlns:xlink="http://www.w3.org/1999/xlink" viewBox="0 0 1920 1044.95"><defs><style>.cls-1{fill:none;}.cls-2{fill:url(#linear-gradient);}.cls-3{fill:url(#linear-gradient-2);}.cls-4{fill:url(#linear-gradient-3);}</style><linearGradient id="linear-gradient" x1="69.56" y1="-14.49" x2="1844.7" y2="813.27" gradientUnits="userSpaceOnUse"><stop offset="0" stop-color="#0c00aa"/><stop offset="1" stop-color="#2a61ff"/></linearGradient><linearGradient id="linear-gradient-2" x1="121.01" y1="-159.93" x2="1838.01" y2="640.72" gradientUnits="userSpaceOnUse"><stop offset="0" stop-color="#bf00aa"/><stop offset="0.05" stop-color="#c305ac"/><stop offset="0.69" stop-color="#ee3fc2"/><stop offset="1" stop-color="#ff55cb"/></linearGradient><linearGradient id="linear-gradient-3" x1="133.62" y1="-286.54" x2="1812.04" y2="496.12" gradientUnits="userSpaceOnUse"><stop offset="0" stop-color="#7900bf"/><stop offset="1" stop-color="#8000d4"/></linearGradient></defs><polyline class="cls-1" points="277.97 827.13 277.97 544.76 277.97 300.9 277.97 114.65"/><line class="cls-1" x1="277.97" y1="2.75" x2="277.97"/><path class="cls-2" d="M1920,0V651.79q-20.32,33.87-44.89,67.31c-274.32,372.12-477.38,139.23-477.38,139.23s-264.38-249.46-605.84-80.39-461.64,51.39-461.64,51.39-128.46-112.72-285.1-43.1A247.07,247.07,0,0,1,0,801.45V164.88L62.8,0Z" transform="translate(0 114.65)"/><path class="cls-3" d="M1920,0V464.89c-240.29,255.7-411.42,59.44-411.42,59.44S1244.2,274.87,902.74,443.94,441.1,495.33,441.1,495.33s-67-58.75-163.13-65.22c-37-2.5-78.41,2.76-122,22.12C94.81,479.43,41.84,476.39,0,462.59V121.89L46.43,0Z" transform="translate(0 114.65)"/><path class="cls-4" d="M1920,0V264.6c-215.62,186.07-365,14.73-365,14.73S1290.61,29.87,949.15,198.94s-461.64,51.39-461.64,51.39S398.33,172.08,278,186.25a260.05,260.05,0,0,0-75.56,21C115.64,245.8,45.4,223.58,0,196.08V0Z" transform="translate(0 114.65)"/></svg>