<svg id="Layer_1" data-name="Layer 1" xmlns="http://www.w3.org/2000/svg" viewBox="0 0 568.14 65.49"><path d="M704.65,528.4l-13.48,5.22,13.48,5.29v13.33l-28.91-13.33V528.33l28.91-13.27Z" transform="translate(-675.74 -507.02)"/><path d="M709.22,507H722v41.35H741v11.92H709.22Z" transform="translate(-675.74 -507.02)"/><path d="M735.67,539.5c0-12.22,8.2-21.9,19.67-21.9,6.41,0,11.48,3.13,13.79,7.52h.37v-6.41h12.44v41.51H769.5v-6h-.37c-3.8,5.52-8.12,7.08-13.79,7.08C743.87,561.33,735.67,551.65,735.67,539.5Zm32,0c0-5.88-3.43-10-9.32-10s-9,4.1-9,10,3.2,9.91,9,9.91S767.64,545.31,767.64,539.5Z" transform="translate(-675.74 -507.02)"/><path d="M781.57,539.13a22.09,22.09,0,0,1,38.15-15l-8.27,8.34a9.74,9.74,0,0,0-7.82-3.27c-5.14,0-9.24,4.17-9.24,10s4.1,10.06,9.24,10.06a9.73,9.73,0,0,0,7.3-2.76l8.27,8.35a21.77,21.77,0,0,1-15.57,6.4A22,22,0,0,1,781.57,539.13Z" transform="translate(-675.74 -507.02)"/><path d="M855.71,518.71v41.51H843V530.64H830v29.58H817.34V507H830v11.69Z" transform="translate(-675.74 -507.02)"/><path d="M858.62,507h12.66v53.2H858.62Z" transform="translate(-675.74 -507.02)"/><path d="M870.91,539.5c0-12.22,8.2-21.9,19.67-21.9,6.41,0,11.48,3.13,13.79,7.52h.37v-6.41h12.44v41.51H904.74v-6h-.37c-3.8,5.52-8.12,7.08-13.79,7.08C879.11,561.33,870.91,551.65,870.91,539.5Zm32,0c0-5.88-3.43-10-9.32-10s-9,4.1-9,10,3.2,9.91,9,9.91S902.88,545.31,902.88,539.5Z" transform="translate(-675.74 -507.02)"/><path d="M920.09,518.71h38.37v41.51H945.8V530.64h-13v29.58H920.09Z" transform="translate(-675.74 -507.02)"/><path d="M960.91,534.36h27.35v11.18H960.91Z" transform="translate(-675.74 -507.02)"/><path d="M990.75,507h12.81v21.23h3.36L1020,507h14.16l-16.32,26.52,15.57,26.68h-14.3l-12.22-20.05h-3.36v20.05H990.75Z" transform="translate(-675.74 -507.02)"/><path d="M1026.22,539.28c0-12.15,9.91-21.68,22.8-21.68a22.5,22.5,0,0,1,22.8,22.72c0,.9-.08,2.46-.15,3.28h-32c.67,4.25,4.62,5.81,9.54,5.81,3.5,0,6.4-.82,7.75-3.57H1071c-2.68,9.24-11.18,15.49-22,15.49C1036.13,561.33,1026.22,551.5,1026.22,539.28Zm31.51-4.25c-.52-2.31-3.79-5.51-8.94-5.51s-8.34,2.75-8.71,5.51Z" transform="translate(-675.74 -507.02)"/><path d="M1135.52,560.22h-12.66V530.64h-13.12v29.58h-12.66V530.64h-13v29.58h-12.67V518.71h64.15Z" transform="translate(-675.74 -507.02)"/><path d="M1138.36,518.71h12.44v6.41h.37c2.31-4.39,8.13-7.52,14.46-7.52,10.8,0,18.92,9.68,18.92,21.9s-8.12,21.83-18.92,21.83c-5.59,0-10.28-1.56-14.08-7.08h-.38v17.81h-12.81Zm33,20.79c0-6.63-4.32-10-9.47-10s-9.23,3.35-9.23,10,4.17,9.91,9.23,9.91S1171.37,546.06,1171.37,539.5Z" transform="translate(-675.74 -507.02)"/><path d="M1203,507h13.41l-23.54,65.49h-13.34Z" transform="translate(-675.74 -507.02)"/><path d="M1243.89,534.33v10.58L1215,558.24V544.91l13.48-5.29L1215,534.4V521.06Z" transform="translate(-675.74 -507.02)"/></svg>