<svg id="Layer_1" data-name="Layer 1" xmlns="http://www.w3.org/2000/svg" viewBox="0 0 568.14 65.49"><defs><style>.cls-1{fill:#10ffaa;}</style></defs><path class="cls-1" d="M704.62,528.94l-13.48,5.22,13.48,5.29v13.34l-28.91-13.34V528.87l28.91-13.26Z" transform="translate(-675.71 -507.56)"/><path class="cls-1" d="M709.19,507.56h12.74v41.35H741v11.92H709.19Z" transform="translate(-675.71 -507.56)"/><path class="cls-1" d="M735.64,540c0-12.21,8.2-21.9,19.67-21.9,6.41,0,11.48,3.13,13.78,7.52h.38v-6.4h12.44v41.5H769.47v-6h-.38c-3.8,5.51-8.12,7.08-13.78,7.08C743.84,561.88,735.64,552.19,735.64,540Zm32,0c0-5.88-3.42-10-9.31-10s-9,4.1-9,10,3.2,9.91,9,9.91S767.6,545.86,767.6,540Z" transform="translate(-675.71 -507.56)"/><path class="cls-1" d="M781.54,539.67a22.09,22.09,0,0,1,38.15-15L811.42,533a9.72,9.72,0,0,0-7.82-3.28c-5.15,0-9.24,4.17-9.24,10s4.09,10.06,9.24,10.06a9.76,9.76,0,0,0,7.3-2.76l8.27,8.35a21.82,21.82,0,0,1-15.57,6.41A22.06,22.06,0,0,1,781.54,539.67Z" transform="translate(-675.71 -507.56)"/><path class="cls-1" d="M855.68,519.26v41.5H843V531.18H830v29.58H817.31v-53.2H830v11.7Z" transform="translate(-675.71 -507.56)"/><path class="cls-1" d="M858.59,507.56h12.66v53.2H858.59Z" transform="translate(-675.71 -507.56)"/><path class="cls-1" d="M870.88,540c0-12.21,8.2-21.9,19.67-21.9,6.41,0,11.48,3.13,13.78,7.52h.38v-6.4h12.44v41.5H904.71v-6h-.38c-3.79,5.51-8.12,7.08-13.78,7.08C879.08,561.88,870.88,552.19,870.88,540Zm32,0c0-5.88-3.43-10-9.32-10s-9,4.1-9,10,3.2,9.91,9,9.91S902.85,545.86,902.85,540Z" transform="translate(-675.71 -507.56)"/><path class="cls-1" d="M920.06,519.26h38.37v41.5H945.76V531.18h-13v29.58H920.06Z" transform="translate(-675.71 -507.56)"/><path class="cls-1" d="M960.88,534.9h27.35v11.18H960.88Z" transform="translate(-675.71 -507.56)"/><path class="cls-1" d="M990.72,507.56h12.81v21.23h3.35L1020,507.56h14.16l-16.32,26.52,15.57,26.68H1019.1l-12.22-20h-3.35v20H990.72Z" transform="translate(-675.71 -507.56)"/><path class="cls-1" d="M1026.19,539.82c0-12.14,9.91-21.68,22.8-21.68a22.49,22.49,0,0,1,22.79,22.72c0,.9-.07,2.46-.14,3.28h-32c.67,4.25,4.62,5.81,9.53,5.81,3.51,0,6.41-.81,7.75-3.57H1071c-2.69,9.24-11.18,15.5-22,15.5C1036.1,561.88,1026.19,552,1026.19,539.82Zm31.51-4.25c-.52-2.31-3.8-5.51-8.94-5.51s-8.34,2.76-8.72,5.51Z" transform="translate(-675.71 -507.56)"/><path class="cls-1" d="M1135.49,560.76h-12.66V531.18h-13.12v29.58H1097V531.18h-13v29.58h-12.67v-41.5h64.15Z" transform="translate(-675.71 -507.56)"/><path class="cls-1" d="M1138.33,519.26h12.44v6.4h.37c2.31-4.39,8.12-7.52,14.46-7.52,10.8,0,18.92,9.69,18.92,21.9s-8.12,21.84-18.92,21.84c-5.59,0-10.28-1.57-14.08-7.08h-.38v17.81h-12.81Zm33,20.78c0-6.63-4.32-10-9.46-10s-9.24,3.35-9.24,10,4.18,9.91,9.24,9.91S1171.33,546.6,1171.33,540Z" transform="translate(-675.71 -507.56)"/><path class="cls-1" d="M1202.93,507.56h13.41l-23.55,65.49h-13.33Z" transform="translate(-675.71 -507.56)"/><path class="cls-1" d="M1243.85,534.87v10.58L1215,558.79V545.45l13.48-5.29L1215,534.94V521.61Z" transform="translate(-675.71 -507.56)"/></svg>